<svg width="25" height="26" viewBox="0 0 25 26" fill="none" xmlns="http://www.w3.org/2000/svg">
<g clip-path="url(#clip0_2025_128)">
<path d="M7.7796 2.62394C7.46806 2.57488 7.4548 2.56981 7.60229 2.54782C7.884 2.50383 8.54686 2.56304 9.00423 2.673C10.0714 2.93013 11.0425 3.58988 12.0799 4.76221L12.355 5.07348L12.7494 5.00919C14.4098 4.73853 16.0968 4.95337 17.5103 5.61481C17.8998 5.79751 18.5129 6.15953 18.5875 6.25257C18.614 6.28302 18.6587 6.47248 18.6869 6.67718C18.793 7.38429 18.7416 7.92393 18.5278 8.32824C18.4118 8.54816 18.4052 8.61752 18.4831 8.80698C18.5203 8.88502 18.5783 8.95081 18.6504 8.99687C18.7224 9.04292 18.8057 9.0674 18.8907 9.0675C19.2421 9.0675 19.6199 8.49233 19.7939 7.69048L19.8635 7.37076L20.001 7.52978C20.7583 8.39929 21.3516 9.58346 21.4527 10.4259L21.4792 10.6458L21.3533 10.4462C21.1702 10.1405 20.9242 9.879 20.6324 9.67988C20.1253 9.33986 19.5884 9.22313 18.1699 9.14701C16.8873 9.07934 16.1614 8.96769 15.4422 8.72917C14.2176 8.32317 13.6011 7.78522 12.1462 5.84995C11.4999 4.98889 11.1022 4.51353 10.7045 4.13122C9.80132 3.26001 8.91474 2.80326 7.7796 2.62563V2.62394Z" fill="white"/>
<path d="M18.8795 4.54416C18.911 3.96899 18.9872 3.58837 19.143 3.24158C19.1771 3.15394 19.2199 3.07005 19.2706 2.99121C19.2789 2.99121 19.2524 3.09271 19.2109 3.2162C19.0982 3.55454 19.0784 4.01467 19.1579 4.55093C19.2573 5.23098 19.312 5.32909 20.0196 6.06328C20.3527 6.40838 20.7388 6.84144 20.8797 7.02922L21.1349 7.36755L20.8797 7.12564C20.5681 6.8296 19.8522 6.25105 19.6932 6.16816C19.5871 6.11403 19.5705 6.11403 19.5059 6.18C19.4446 6.2409 19.433 6.33225 19.423 6.76532C19.4114 7.44029 19.3203 7.87336 19.1016 8.30474C18.9839 8.54157 18.9657 8.49082 19.0717 8.22523C19.1513 8.02899 19.1596 7.94103 19.1596 7.28804C19.1596 5.977 19.0038 5.66066 18.104 5.12271C17.8325 4.96268 17.5538 4.8159 17.2688 4.68288C17.1283 4.62524 16.9921 4.5574 16.8611 4.47988C16.886 4.4545 17.7642 4.71502 18.1172 4.85204C18.6442 5.05843 18.7304 5.0838 18.795 5.06012C18.8364 5.0432 18.858 4.91633 18.8778 4.54416H18.8795ZM8.38481 6.789C7.75344 5.90595 7.3607 4.55093 7.44687 3.53762L7.47173 3.22466L7.6159 3.25004C7.88767 3.30079 8.35333 3.47672 8.57207 3.61205C9.1703 3.98084 9.43047 4.46634 9.69395 5.71479C9.77184 6.08019 9.87293 6.49296 9.91933 6.63506C9.9939 6.86005 10.2789 7.38616 10.5093 7.72788C10.675 7.97486 10.5656 8.09159 10.1977 8.05775C9.63595 8.007 8.87533 7.47413 8.38481 6.789ZM18.1106 13.3645C15.1542 12.1584 14.1136 11.1095 14.1136 9.34173C14.1136 9.08121 14.1218 8.86806 14.1334 8.86806C14.1434 8.86806 14.2577 8.95264 14.387 9.05922C14.9869 9.54642 15.658 9.75449 17.5173 10.0302C18.611 10.1926 19.2242 10.3229 19.7926 10.5141C21.5989 11.1214 22.7141 12.3529 22.9809 14.0327C23.0572 14.5199 23.0141 15.4334 22.8865 15.9155C22.787 16.2962 22.4854 16.9813 22.4059 17.0084C22.3827 17.0168 22.3612 16.9305 22.3562 16.8121C22.3264 16.1828 22.0115 15.5688 21.4845 15.1086C20.8846 14.5859 20.0793 14.1697 18.1106 13.3662V13.3645ZM16.0358 13.8669C16.0011 13.6527 15.9535 13.4408 15.8933 13.2326L15.8171 13.0042L15.958 13.1649C16.1518 13.3848 16.306 13.6673 16.4352 14.0446C16.5346 14.3321 16.5446 14.4167 16.5446 14.8836C16.5446 15.3421 16.5313 15.4385 16.4385 15.6956C16.3112 16.0769 16.0977 16.4223 15.8154 16.7039C15.2752 17.2621 14.5809 17.57 13.5783 17.6986C13.4043 17.7206 12.8972 17.7578 12.4514 17.7815C11.3262 17.8407 10.5855 17.9642 9.92098 18.201C9.86074 18.228 9.79614 18.2435 9.73041 18.2467C9.7039 18.2196 10.158 17.9455 10.5308 17.7628C11.0578 17.504 11.5831 17.3636 12.7597 17.1657C13.3397 17.0676 13.9412 16.9475 14.0937 16.9001C15.5321 16.4535 16.2728 15.2981 16.0358 13.8669Z" fill="white"/>
<path d="M17.3911 16.3093C16.9984 15.4533 16.9072 14.6261 17.1227 13.8547C17.1459 13.7701 17.1823 13.7041 17.2055 13.7041C17.2271 13.7041 17.3215 13.7549 17.411 13.8174C17.5933 13.9409 17.9546 14.149 18.9223 14.6836C20.1287 15.3518 20.8181 15.8677 21.2854 16.4598C21.6947 16.9758 21.9483 17.5662 22.0709 18.2834C22.1405 18.6894 22.0991 19.6706 21.9963 20.08C21.6715 21.3724 20.9192 22.3874 19.842 22.9795C19.6846 23.0658 19.5438 23.1368 19.5272 23.1368C19.5123 23.1368 19.5703 22.9897 19.6548 22.8087C20.0177 22.0406 20.0591 21.2946 19.7857 20.464C19.6167 19.9548 19.2753 19.334 18.5859 18.2834C17.7839 17.0654 17.5883 16.739 17.3911 16.3093ZM6.28495 20.9326C7.38364 19.992 8.74747 19.3255 9.99198 19.1191C10.633 19.0352 11.2832 19.0609 11.9159 19.1953C12.7114 19.4016 13.4239 19.8652 13.7935 20.4149C14.1547 20.9546 14.3105 21.4232 14.4729 22.4686C14.5359 22.8797 14.6055 23.2942 14.6254 23.3872C14.7463 23.9285 14.9833 24.3616 15.275 24.5781C15.739 24.9232 16.541 24.9452 17.3282 24.634C17.4099 24.5955 17.4963 24.5682 17.585 24.5528C17.6132 24.5815 17.2171 24.8505 16.9387 24.9926C16.6084 25.1719 16.2389 25.2627 15.8649 25.2565C15.144 25.2565 14.5458 24.8843 14.0454 24.1265C13.8618 23.8056 13.698 23.4734 13.5548 23.1318C13.0279 21.9121 12.7677 21.5416 12.1562 21.1339C11.6226 20.7787 10.9349 20.7161 10.4179 20.9732C9.73844 21.3115 9.54952 22.1912 10.0367 22.7494C10.2643 22.9893 10.5621 23.1472 10.8852 23.1994C11.0135 23.2174 11.1441 23.207 11.2682 23.1688C11.3922 23.1307 11.5067 23.0658 11.604 22.9785C11.7013 22.8912 11.7791 22.7836 11.832 22.6629C11.885 22.5423 11.9119 22.4114 11.911 22.2792C11.911 21.9121 11.7718 21.704 11.4221 21.5416C10.9432 21.3234 10.4311 21.5788 10.4328 22.0339C10.4328 22.2284 10.5173 22.3502 10.7095 22.4399C10.8322 22.4957 10.8355 22.4991 10.7344 22.4788C10.2969 22.3857 10.1942 21.8495 10.5455 21.4942C10.9697 21.0679 11.8447 21.2557 12.1446 21.8393C12.2706 22.0846 12.2855 22.5718 12.1761 22.8662C11.9275 23.5259 11.2116 23.8727 10.4825 23.6832C9.98535 23.5547 9.78484 23.416 9.18661 22.7917C8.14758 21.7057 7.7449 21.4942 6.24684 21.2574L5.9585 21.2117L6.28495 20.9326Z" fill="white"/>
<path fill-rule="evenodd" clip-rule="evenodd" d="M1.41052 1.49579C4.88058 5.76894 7.27184 7.53166 7.53698 7.90382C7.75572 8.21171 7.67286 8.48914 7.29835 8.70567C7.03202 8.84227 6.74211 8.92445 6.44492 8.94758C6.20132 8.94758 6.11681 8.85285 6.11681 8.85285C5.97595 8.71752 5.89641 8.7412 5.17224 7.43692C4.55655 6.45873 3.93345 5.48543 3.30298 4.51711C3.24995 4.46636 3.25161 4.46636 5.07115 7.77018C5.36446 8.45869 5.12915 8.71075 5.12915 8.80887C5.12915 9.00848 5.07446 9.11337 4.83252 9.38911C4.42818 9.84586 4.24755 10.3601 4.11664 11.4242C3.97081 12.6168 3.55983 13.4593 2.41972 14.9023C1.75355 15.7464 1.64418 15.9003 1.47515 16.2421C1.26303 16.67 1.20503 16.9103 1.18183 17.4499C1.15698 18.0234 1.20503 18.3922 1.37738 18.9386C1.52652 19.419 1.68561 19.7337 2.08829 20.3663C2.43629 20.9127 2.63515 21.3187 2.63515 21.4778C2.63515 21.6029 2.65835 21.6029 3.19858 21.4795C4.48452 21.1851 5.53018 20.6674 6.11846 20.0297C6.48304 19.6355 6.56755 19.419 6.57086 18.8794C6.57252 18.5275 6.56092 18.4531 6.46646 18.2501C6.31401 17.9202 6.03561 17.6444 5.42246 17.2181C4.61709 16.6599 4.27241 16.2116 4.17961 15.5941C4.10006 15.0866 4.19121 14.7297 4.63532 13.7841C5.09601 12.8029 5.21035 12.385 5.28824 11.3988C5.33795 10.7611 5.40589 10.509 5.58652 10.306C5.77544 10.0962 5.94446 10.0252 6.41178 9.96089C7.17241 9.85432 7.65464 9.65639 8.05235 9.28422C8.21177 9.1499 8.34039 8.98153 8.42915 8.79096C8.51791 8.60039 8.56464 8.39227 8.56606 8.18126L8.58264 7.82601L8.38875 7.59933C7.69109 6.77379 0.943206 0.846191 0.900121 0.846191C0.891835 0.846191 1.12052 1.13885 1.41052 1.49579ZM3.02789 18.0995C3.10392 17.9624 3.12652 17.8011 3.0912 17.6478C3.05588 17.4945 2.96522 17.3604 2.83732 17.2723C2.58875 17.1031 2.19932 17.1843 2.19932 17.4025C2.19932 17.4702 2.23578 17.5193 2.31863 17.5616C2.45783 17.6343 2.46778 17.7155 2.35841 17.883C2.24738 18.0504 2.25732 18.1976 2.38326 18.2991C2.58709 18.4598 2.87544 18.3719 3.02789 18.0995ZM9.06155 10.1487C8.70526 10.2586 8.35892 10.6426 8.24955 11.0452C8.18492 11.2905 8.22304 11.7219 8.32081 11.8539C8.47989 12.0687 8.63235 12.1245 9.04829 12.1228C9.86029 12.1178 10.5662 11.7642 10.6491 11.321C10.7154 10.959 10.4055 10.4582 9.97795 10.2366C9.68753 10.1163 9.36886 10.0857 9.06155 10.1487ZM10.0127 10.9015C10.137 10.7204 10.0823 10.5259 9.86858 10.394C9.46424 10.1419 8.84944 10.35 8.84944 10.7391C8.84944 10.9336 9.16926 11.1451 9.46258 11.1451C9.65812 11.1451 9.92658 11.0266 10.0127 10.9015Z" fill="white"/>
</g>
<defs>
<clipPath id="clip0_2025_128">
<rect width="23.2" height="25.375" fill="white" transform="translate(0.899902)"/>
</clipPath>
</defs>
</svg>
